<?xml version="1.0" encoding="UTF-8"?>
<svg id="_レイヤー_2" data-name="レイヤー 2" xmlns="http://www.w3.org/2000/svg" viewBox="0 0 200 60.93">
  <defs>
    <style>
      .cls-1, .cls-2 {
        fill: #363;
      }

      .cls-3, .cls-4, .cls-5 {
        fill: #fff;
      }

      .cls-6 {
        font-family: Corbel-Bold, Corbel;
        font-size: 19.65px;
        font-weight: 700;
        letter-spacing: .06em;
        stroke-width: .47px;
      }

      .cls-6, .cls-5, .cls-2, .cls-7, .cls-8 {
        stroke-miterlimit: 10;
      }

      .cls-6, .cls-2, .cls-8 {
        stroke: #363;
      }

      .cls-4, .cls-5 {
        opacity: .5;
      }

      .cls-5 {
        stroke: #59941d;
      }

      .cls-5, .cls-2, .cls-7, .cls-8 {
        stroke-width: .05px;
      }

      .cls-9 {
        opacity: .4;
      }

      .cls-7 {
        fill: #336432;
        stroke: #693;
      }

      .cls-8 {
        fill: #693;
      }
    </style>
  </defs>
  <g id="pf-header-logo">
    <g>
      <g id="bg" class="cls-9">
        <path class="cls-3" d="M171.39,60.93H30.16c-16.59,0-30.16-13.57-30.16-30.16v-.61C0,13.57,13.57,0,30.16,0H169.84c16.59,0,30.16,13.57,30.16,30.16v2.16c0,15.8-12.81,28.61-28.61,28.61Z"/>
      </g>
      <g>
        <g>
          <path id="frame" class="cls-7" d="M29.91,12.02s-.69,1.19-1.47,2.07c-.57,.64-1.29,.99-1.35,1.15-.61,1.52,2.09,5.4,2.18,5.48,.24,.22,3.65,5.96,3.68,5.88,0,0,1.14,4.22,3.9,5.63,2.76,1.41,5.14,.53,6.06,.03s4.76-3.83,2.44-8.63c0,0-4.52-6.48-4.72-7.44,0,0-2.87-5.68-4.26-6.08,0,0-.32,0-.9,.11,0,0-.61,.23-1.33,.41-.78,.21-1.76,.24-2.39,.31l-.27,.46-1.08,.63h-.49Z"/>
          <path id="wheel" class="cls-8" d="M31.19,13.45s.55-.63,1.22-.71l1.47,2.52-1.22,.71-1.47-2.52Z"/>
          <path id="body" class="cls-8" d="M45.28,23.53c1.19,1.88,.72,4.07,.72,4.07-.68,3.48-3.03,5.45-6.2,5.39s-4.36-1.83-4.36-1.83c-.75-.61-1.67-2.46-1.67-2.46l-.95-2.28-1.39-2.25,2.2,1.06,1.44-2.77-.45-.76,.04-1.41,2.04-1.19,1.31,.62,.45,.76,2.99,.06,.18-2.48,3.65,5.47Z"/>
        </g>
        <g id="_丸円" data-name="丸円">
          <path class="cls-1" d="M52.08,29.05c.49,21.79-25.36,33.52-41.06,17.75C-4.15,31.2,7.06,5.12,28.77,5.49c12.6,.19,23.13,11.02,23.31,23.55h0Zm-1.02,0c.62-15.86-16.33-26.67-30.58-20.02-16.52,7.78-16.09,31.42,.67,38.43,13.33,5.74,29.47-3.38,29.92-18.41h0Z"/>
        </g>
        <g id="glass">
          <path id="left-vine" class="cls-2" d="M41.15,41.27s.42,.42,.47,.63,.26,2.61,.21,2.87-.1,.68-.99,.05-1.51-1.67-1.51-1.67c0,0-.73-2.03-.94-2.87s-1.51-3.75-2.4-5.06-18.76-7.77-19.75-7.97-4.22-1.09-4.43-1.3,.89-.47,.89-.47l1.98,.36-1.93-.89-.96-.36s-.33-.22-.31-.35c.04-.24,.06-.68,.31-.78,.05-.02,.43,.11,.47,.1,.36-.05,1.54,1.02,1.8,1.02s-.83-.63-.78-.73-.1-.78-.1-.78c0,0,.16,0,1.56,.94s7.66,4.33,9.02,4.74,5.94,2.45,5.94,2.45l6.2,2.76s.99,.26,1.98,2.4,2.71,4.53,3.28,4.9Z"/>
          <path id="right-vine" class="cls-2" d="M10.98,29.28s-1.09,.57-1.98,1.56,2.4,.78,3.65,0,4.74-2.71,6.88-2.19,6.93,2.45,6.93,2.45l.13-.09s16.19,7.02,18.17,8.53c0,0,.42,.11,0-.96s1.3-2.16,1.62-2.32,.16-.47-.63-.57-8.29-1.2-16.52-4.33c-8.23-3.13-9.85-3.6-9.85-3.6,0,0-2.19-.1-3.02,.31s-5.37,1.2-5.37,1.2Z"/>
          <path id="left-glass" class="cls-4" d="M13.24,22.07s2.4-.16,6.2,1.67c0,0,5.78,2.71,5.16,4.01l-.16,.63v.36c-.03,.06-1.48,2.23-2.81,3.28,0,0-.68,.89-1.51,1.35,0,0-.52,.42-2.81-.42,0,0-5.37-2.24-5.94-3.23,0,0-.63-.05-.26-2.35,0,0,.21-3.13,.78-3.91s.68-1.04,1.35-1.41Z"/>
          <path id="right-glass" class="cls-5" d="M29.5,29.1s2.5-.42,7.4,1.41c0,0,4.79,1.56,7.3,3.39,0,0,1.2,1.15,.42,3.13,0,0-1.62,2.61-2.24,3.02l-1.35,1.35s-.78,.73-1.56,.63-4.59-1.2-5.47-1.67c0,0-3.75-1.77-4.06-2.03,0,0-1.51-.63-1.62-1.93,0,0-.37-3.73,0-5.89,.18-1.03,.83-1.39,1.2-1.41Z"/>
          <path id="frame-glass" class="cls-2" d="M11.27,25.78l-.22-.23,.31-1.35-.26-.52,.26-.57,.47-.11,.52-.83,.42,.1s.16-.26,.83-.42,5.98,.85,11.04,4.78c0,0,.94,1.58,5.01,2.05,0,0,3.65,.16,7.56,1.62,0,0,4.69,1.62,7.04,3.28,0,0,.63,.42,.78,1.2l.68,.89,.1,.83,.47,1.25-.16,.47h-.98l-1.16,.89-.47-.05-.89,1.15-.26-.16s2.29-2.45,2.45-3.8c0,0,.41-1.84-.84-2.51s-2.76-1.82-8.18-3.64c0,0-3.8-1.2-5.52-1.04s-1.56,.21-1.98,1.51-.05,4.12-.1,4.27c0,0-.1,.1-.21,0s-.42-2.81,.21-4.85c0,0-1.35-2.03-3.23-1.41,0,0-2.46,3.19-3.07,3.7,0,0-.36-.1-.31-.26,0,0,2.71-2.55,2.87-3.39,0,0-.03-.17,.1-.57,.07-.22,.19-.52,0-.89-.26-.49-.95-1.1-2.14-1.82-2.14-1.3-5.37-2.97-8.6-3.28,0,0-1.04-.05-1.72,1.15,0,0-.66,.61-.82,2.57Z"/>
        </g>
      </g>
      <text id="Mahiros_PortFolio" data-name="Mahiros PortFolio" class="cls-6" transform="translate(55.82 24.99) scale(1.17 1)"><tspan x="0" y="0">Mahiro,K</tspan><tspan x="0" y="24.53">PORTFOLIO</tspan></text>
    </g>
  </g>
</svg>