<?xml version="1.0" standalone="no"?>
<!DOCTYPE svg PUBLIC "-//W3C//DTD SVG 20010904//EN"
 "http://www.w3.org/TR/2001/REC-SVG-20010904/DTD/svg10.dtd">
<svg version="1.0" xmlns="http://www.w3.org/2000/svg"
 width="501.000000pt" height="501.000000pt" viewBox="0 0 501.000000 501.000000"
 preserveAspectRatio="xMidYMid meet">
<metadata>
Created by potrace 1.14, written by Peter Selinger 2001-2017
</metadata>
<g transform="translate(0.000000,501.000000) scale(0.100000,-0.100000)"
fill="#000000" stroke="none">
<path d="M2360 4719 c-1014 -61 -1858 -846 -2006 -1865 -24 -162 -24 -449 0
-604 36 -241 98 -444 200 -655 113 -235 220 -388 401 -574 329 -338 727 -548
1202 -633 168 -30 529 -32 688 -5 356 62 674 201 952 416 706 546 1013 1459
782 2330 -117 444 -398 864 -767 1149 -419 323 -915 474 -1452 441z m451 -140
c653 -66 1226 -445 1528 -1010 100 -188 176 -420 206 -629 19 -137 19 -406 0
-535 -89 -595 -471 -1122 -1008 -1391 -472 -238 -1015 -276 -1523 -109 -692
228 -1184 823 -1279 1551 -123 938 493 1840 1416 2073 99 25 177 38 324 55 68
7 240 5 336 -5z"/>
<path d="M3091 4284 c-40 -13 -118 -29 -171 -35 -83 -10 -100 -15 -109 -33
-15 -26 -103 -76 -134 -76 -15 0 -28 -9 -34 -22 -24 -53 -129 -180 -184 -222
-58 -45 -59 -47 -59 -96 0 -94 72 -259 185 -420 96 -138 344 -556 368 -621 14
-36 37 -89 52 -118 l27 -54 -29 6 c-70 16 -275 46 -348 52 -105 9 -255 47
-331 85 -34 17 -90 56 -125 87 -185 165 -537 343 -816 414 -132 33 -178 36
-231 13 -20 -10 -45 -16 -54 -15 -10 1 -27 -14 -43 -38 -15 -24 -33 -41 -44
-41 -27 0 -47 -52 -32 -87 8 -22 8 -41 -4 -83 -12 -46 -12 -57 -1 -68 11 -12
15 -6 21 35 16 108 81 226 144 261 46 26 92 28 193 7 136 -28 272 -79 448
-167 263 -131 401 -235 402 -300 2 -92 -46 -172 -190 -319 -78 -81 -93 -109
-57 -109 12 0 48 38 152 158 l28 33 118 -45 c64 -25 121 -45 125 -44 4 2 32
-7 62 -20 l55 -22 -3 -98 c-4 -113 7 -193 27 -200 12 -4 13 16 8 124 -5 94 -3
152 8 214 20 117 39 157 81 170 45 15 192 15 274 0 239 -42 616 -176 883 -312
168 -86 214 -119 233 -163 18 -43 17 -138 0 -188 -17 -47 -105 -185 -163 -254
-48 -57 -49 -59 -28 -66 9 -4 27 11 50 43 42 57 69 64 120 30 17 -11 33 -20
36 -20 14 0 18 30 8 62 -12 42 7 58 68 58 58 0 70 27 43 98 l-19 50 32 26 c31
25 31 26 13 41 -11 8 -28 15 -37 15 -18 0 -89 83 -89 104 0 37 -71 101 -174
157 l-49 27 44 22 c113 58 229 227 265 386 21 95 15 222 -15 307 -13 36 -92
165 -215 350 -107 161 -217 338 -245 393 -110 222 -250 443 -326 513 -40 37
-50 41 -92 40 -27 -1 -81 -12 -122 -25z m-715 -1650 c55 -26 124 -93 124 -120
0 -13 -5 -24 -10 -24 -6 0 -63 22 -128 49 -64 27 -130 55 -146 61 -24 9 -26
12 -15 26 31 37 106 41 175 8z"/>
<path d="M920 2569 c-49 -30 -138 -107 -151 -131 -15 -28 3 -45 59 -53 77 -10
267 32 286 64 3 5 -13 21 -37 34 -24 14 -60 44 -80 66 -20 23 -38 41 -39 41
-2 0 -19 -10 -38 -21z"/>
<path d="M3625 1483 c-33 -23 -51 -28 -101 -28 l-61 0 24 -64 c27 -72 62 -121
130 -181 55 -48 88 -59 110 -37 14 14 15 31 4 149 -8 99 -16 139 -29 157 -25
34 -32 35 -77 4z"/>
</g>
</svg>
