<?xml version="1.0" encoding="UTF-8"?>
<svg id="_レイヤー_2" data-name="レイヤー 2" xmlns="http://www.w3.org/2000/svg" viewBox="0 0 200 437.86">
  <defs>
    <style>
      .cls-1 {
        font-size: 19.65px;
        glyph-orientation-vertical: 90deg;
        letter-spacing: .06em;
        text-orientation: sideways-right;
        writing-mode: tb;
      }

      .cls-1, .cls-2, .cls-3, .cls-4 {
        font-family: Corbel-Bold, Corbel;
        font-weight: 700;
      }

      .cls-5 {
        stroke: #59941d;
      }

      .cls-5, .cls-6 {
        fill: #fff;
        opacity: .5;
      }

      .cls-5, .cls-7, .cls-8, .cls-9 {
        stroke-miterlimit: 10;
        stroke-width: .18px;
      }

      .cls-7 {
        stroke: #693;
      }

      .cls-7, .cls-8 {
        fill: #363;
      }

      .cls-2 {
        letter-spacing: .06em;
      }

      .cls-2, .cls-3, .cls-4 {
        font-size: 100.96px;
      }

      .cls-10 {
        fill: #275400;
      }

      .cls-8, .cls-9 {
        stroke: #363;
      }

      .cls-3 {
        letter-spacing: .06em;
      }

      .cls-4 {
        letter-spacing: .06em;
      }

      .cls-9 {
        fill: #693;
      }
    </style>
  </defs>
  <g id="pf-hero-logo">
    <g>
      <rect id="bg" class="cls-6" x="0" y="0" width="200" height="435.48" rx="100" ry="100"/>
      <g id="icon">
        <g>
          <path id="frame" class="cls-7" d="m106.13,26.7s-2.44,4.22-5.22,7.33c-2.01,2.25-4.55,3.52-4.77,4.07-2.14,5.39,7.39,19.09,7.73,19.4.85.79,12.93,21.07,13.02,20.79,0,0,4.04,14.94,13.79,19.91,9.75,4.98,18.18,1.86,21.43.12,3.25-1.75,16.85-13.55,8.62-30.53,0,0-15.97-22.91-16.7-26.33,0,0-10.17-20.11-15.06-21.52,0,0-1.15-.03-3.2.38,0,0-2.17.8-4.7,1.47-2.75.73-6.23.85-8.46,1.11l-.95,1.62-3.82,2.24-1.74-.05Z"/>
          <path id="wheel" class="cls-9" d="m110.68,31.72s1.96-2.21,4.31-2.53l5.22,8.91-4.31,2.53-5.22-8.91Z"/>
          <path id="body" class="cls-9" d="m160.51,67.41c4.21,6.64,2.56,14.41,2.56,14.41-2.4,12.32-10.71,19.29-21.95,19.07-11.24-.22-15.43-6.47-15.43-6.47-2.65-2.17-5.9-8.71-5.9-8.71l-3.36-8.05-4.91-7.95,7.78,3.76,5.08-9.82-1.58-2.7.14-4.99,7.2-4.22,4.64,2.2,1.58,2.7,10.59.21.65-8.77,12.91,19.34Z"/>
        </g>
        <g id="_丸円" data-name="丸円">
          <path class="cls-10" d="m184.53,88.06c1.19,33.42-18.51,66.37-49.08,80.58-57.25,27.03-122.8-17.94-120.91-80.58C17.02,13.16,107.16-23.18,160.03,30.09c15.04,15.35,24.08,36.44,24.49,57.96h0Zm-3.6,0c.73-20.83-7.56-41.77-22.66-56.2C118.89-6.43,52.54,7.91,33.94,59.84c-20.65,60.71,36,114.78,95.97,95.45,28.98-9.2,50.16-36.53,51.01-67.24h0Z"/>
        </g>
        <g id="glass">
          <path id="left-vine" class="cls-8" d="m145.86,131.29s1.47,1.47,1.66,2.21.92,9.22.74,10.14-.37,2.4-3.5.18c-3.13-2.21-5.35-5.9-5.35-5.9,0,0-2.58-7.19-3.32-10.14s-5.35-13.27-8.48-17.88-66.37-27.47-69.88-28.21-14.93-3.87-15.67-4.61,3.13-1.66,3.13-1.66l7.01,1.29-6.82-3.13-3.41-1.26s-1.18-.77-1.1-1.22c.14-.84.21-2.41,1.11-2.77.17-.07,1.52.39,1.66.37,1.29-.18,5.44,3.6,6.36,3.6s-2.95-2.21-2.77-2.58-.37-2.77-.37-2.77c0,0,.55,0,5.53,3.32s27.1,15.3,31.9,16.78,21.02,8.67,21.02,8.67l21.94,9.77s3.5.92,7.01,8.48c3.5,7.56,9.59,16.04,11.62,17.33Z"/>
          <path id="right-vine" class="cls-8" d="m39.11,88.89s-3.87,2.03-7.01,5.53,8.48,2.77,12.91,0,16.78-9.59,24.34-7.74c7.56,1.84,24.52,8.67,24.52,8.67l.45-.3s57.26,24.82,64.27,30.17c0,0,1.47.38,0-3.41s4.61-7.66,5.72-8.21.55-1.66-2.21-2.03-29.31-4.24-58.44-15.3c-29.13-11.06-34.85-12.72-34.85-12.72,0,0-7.74-.37-10.69,1.11s-18.99,4.24-18.99,4.24Z"/>
          <path id="left-glass" class="cls-6" d="m47.13,63.35s8.48-.55,21.94,5.9c0,0,20.46,9.59,18.25,14.2l-.55,2.21v1.29c-.1.2-5.23,7.89-9.96,11.62,0,0-2.4,3.13-5.35,4.79,0,0-1.84,1.47-9.96-1.47,0,0-18.99-7.93-21.02-11.43,0,0-2.21-.18-.92-8.3,0,0,.74-11.06,2.77-13.83s2.4-3.69,4.79-4.98Z"/>
          <path id="right-glass" class="cls-5" d="m104.65,88.24s8.85-1.47,26.18,4.98c0,0,16.96,5.53,25.81,11.98,0,0,4.24,4.06,1.47,11.06,0,0-5.72,9.22-7.93,10.69l-4.79,4.79s-2.77,2.58-5.53,2.21-16.22-4.24-19.36-5.9c0,0-13.27-6.27-14.38-7.19,0,0-5.35-2.21-5.72-6.82,0,0-1.31-13.19,0-20.83.63-3.66,2.93-4.92,4.24-4.98Z"/>
          <path id="frame-glass" class="cls-8" d="m40.16,76.5l-.78-.8,1.11-4.79-.92-1.84.92-2,1.66-.4,1.84-2.95,1.47.37s.55-.92,2.95-1.47,21.17,3.01,39.07,16.9c0,0,3.34,5.59,17.72,7.25,0,0,12.91.55,26.73,5.72,0,0,16.59,5.72,24.89,11.62,0,0,2.21,1.47,2.77,4.24l2.4,3.13.37,2.95,1.66,4.42-.55,1.66h-3.46l-4.1,3.13-1.66-.18-3.13,4.06-.92-.55s8.11-8.67,8.67-13.46c0,0,1.44-6.5-2.97-8.87s-9.76-6.43-28.93-12.88c0,0-13.46-4.24-19.54-3.69s-5.53.74-7.01,5.35c-1.47,4.61-.18,14.57-.37,15.12,0,0-.37.37-.74,0s-1.47-9.96.74-17.15c0,0-4.79-7.19-11.43-4.98,0,0-8.71,11.29-10.88,13.09,0,0-1.29-.37-1.11-.92,0,0,9.59-9.03,10.14-11.98,0,0-.1-.62.37-2.03.26-.78.69-1.84,0-3.13-.92-1.73-3.35-3.89-7.56-6.45-7.56-4.61-18.99-10.51-30.42-11.62,0,0-3.69-.18-6.08,4.06,0,0-2.32,2.15-2.91,9.1Z"/>
        </g>
      </g>
      <text class="cls-4" transform="translate(78.49 249.89) scale(.92 1)"><tspan x="0" y="0">M</tspan></text>
      <text class="cls-3" transform="translate(78.49 331.75) scale(1.2 1)"><tspan x="0" y="0">K</tspan></text>
      <text class="cls-2" transform="translate(78.49 413.61) scale(1.33 1)"><tspan x="0" y="0">P</tspan></text>
      <text class="cls-1" transform="translate(44.26 195.72) scale(1.41 1)"><tspan x="0" y="0">Mahiro,K PORTFOLIO</tspan></text>
    </g>
  </g>
</svg>